<?xml version="1.0" encoding="UTF-8"?>
<svg width="120px" height="120px" viewBox="0 0 120 120" version="1.1" xmlns="http://www.w3.org/2000/svg" xmlns:xlink="http://www.w3.org/1999/xlink" style="background: #FFFFFF;">
    <!-- Generator: Sketch 41.2 (35397) - http://www.bohemiancoding.com/sketch -->
    <title>logo/3</title>
    <desc>Created with Sketch.</desc>
    <defs>
        <linearGradient x1="50%" y1="100%" x2="50%" y2="0%" id="linearGradient-1">
            <stop stop-color="#14DDA8" offset="0%"></stop>
            <stop stop-color="#10CCC8" offset="100%"></stop>
        </linearGradient>
        <linearGradient x1="50%" y1="100%" x2="50%" y2="146.153846%" id="linearGradient-2">
            <stop stop-color="#FFFFFF" offset="0%"></stop>
            <stop stop-color="#10CDC6" offset="100%"></stop>
        </linearGradient>
        <linearGradient x1="50%" y1="54.8185076%" x2="50%" y2="-34.8863529%" id="linearGradient-3">
            <stop stop-color="#FFFFFF" offset="0%"></stop>
            <stop stop-color="#12D5B6" offset="100%"></stop>
        </linearGradient>
        <path d="M27.6830111,43.377875 C26.1112982,44.56357 23.5744811,44.5602797 22.0071297,43.377875 L3.25906899,29.9947504 C1.45913489,28.7098846 0,25.876559 0,23.6709881 L0,18.432341 L0,7.10542736e-15 L49.6901408,7.10542736e-15 L49.6901408,23.6746365 C49.6901408,25.8802732 48.2291484,28.7112106 46.4310719,29.9947504 L27.6830111,43.377875 Z" id="path-4"></path>
    </defs>
    <g id="Symbols" stroke="none" stroke-width="1" fill="none" fill-rule="evenodd">
        <g id="logo/3">
            <g id="icon">
                <rect id="Rectangle-2" fill="#FFFFFF" x="0" y="0" width="120" height="120" rx="26"></rect>
                <circle id="Oval" fill="url(#linearGradient-1)" cx="60" cy="60" r="51"></circle>
                <g id="acron" transform="translate(29.000000, 8.000000)">
                    <rect id="Rectangle-3" fill="url(#linearGradient-2)" x="28" y="11" width="7" height="13" rx="3.5"></rect>
                    <g id="Oval-2" transform="translate(6.211268, 41.808500)">
                        <mask id="mask-5" fill="white">
                            <use xlink:href="#path-4"></use>
                        </mask>
                        <use id="Mask" stroke="url(#linearGradient-3)" stroke-width="5" stroke-linecap="round" stroke-linejoin="round" xlink:href="#path-4"></use>
                        <ellipse fill="#FFFFFF" mask="url(#mask-5)" cx="24.8450704" cy="42.6262824" rx="11.5352113" ry="11.6028334"></ellipse>
                    </g>
                    <path d="M38.3217448,56.5619048 C36.0215672,56.7617165 33.652864,56.8575615 31.2338033,56.8575615 C20.1436358,56.8575615 10.1118597,54.8431324 2.88907219,50.0317042 C1.20397609,49.2499389 0,47.1827881 0,44.7556435 C0,44.3857709 0.0279596006,44.0242583 0.0813206784,43.6743806 C0.0837088319,43.6332335 0.0919708927,43.5949462 0.100300891,43.5566844 C0.145730514,43.2895418 0.206026076,43.0295046 0.28002252,42.7780644 C3.69677115,28.775664 16.2592593,18.3878847 31.2338033,18.3878847 C46.2083689,18.3878847 58.7708717,28.7756939 62.1875989,42.7781249 C62.2615813,43.0295263 62.3218671,43.2895218 62.3672919,43.5566206 C62.3756266,43.5949036 62.3838933,43.6332122 62.3920918,43.6715463 C62.4396441,44.0242593 62.4676036,44.3857714 62.4676036,44.7556435 C62.4676036,47.1827832 61.2636323,49.2499307 59.5785414,50.0316995 C56.6870542,51.9578523 53.3453901,53.4357497 49.6658636,54.5155998" id="Combined-Shape" stroke="#FFFFFF" stroke-width="5" stroke-linecap="round" stroke-linejoin="round" fill="#13D6B7"></path>
                    <path d="M9.76056338,43.2711285 C9.76056338,43.2711285 12.6268325,35.6021042 20.2737068,30.9711656 M28.3271974,27.9428472 C29.154733,27.7940777 30.0146583,27.6828383 30.9078762,27.6141804" id="Path-4" stroke="#FFFFFF" stroke-width="5" stroke-linecap="round" stroke-linejoin="round"></path>
                </g>
            </g>
        </g>
    </g>
</svg>